# xmcd
#
# Track frame offsets:
# 150
# 11270
# 17498
# 23039
# 33536
# 43729
# 53178
# 64101
# 68653
# 85132
# 97539
# 106548
# 114486
# 128044
# 142620
# 150137
# 162195
# 167962
# 174430
# 180631
# 194874
# 201983
# 217232
# 224229
# 229191
#
# Disc length: 3236 seconds
#
#
# Revision: 0
# Processed by: cddbd v1.5.1PL2 Copyright (c) Steve Scherf et al.
# Submitted via: FreeRIP 2.945 
#
DISCID=4d0ca219
DTITLE=Kátia e Gabi - Canções Preferidas 2
DYEAR=2005
DGENRE=Country
TTITLE0=Teste
TTITLE1=Teste
TTITLE2=Teste
TTITLE3=Teste
TTITLE4=Teste
TTITLE5=Teste
TTITLE6=Teste
TTITLE7=Teste
TTITLE8=Teste
TTITLE9=Teste
TTITLE10=Teste
TTITLE11=Teste
TTITLE12=Teste
TTITLE13=Teste
TTITLE14=Teste
TTITLE15=Teste
TTITLE16=Teste
TTITLE17=Teste
TTITLE18=Teste
TTITLE19=Teste
TTITLE20=Teste
TTITLE21=Teste
TTITLE22=Teste
TTITLE23=Teste
TTITLE24=Teste
EXTD=
EXTT0=
EXTT1=
EXTT2=
EXTT3=
EXTT4=
EXTT5=
EXTT6=
EXTT7=
EXTT8=
EXTT9=
EXTT10=
EXTT11=
EXTT12=
EXTT13=
EXTT14=
EXTT15=
EXTT16=
EXTT17=
EXTT18=
EXTT19=
EXTT20=
EXTT21=
EXTT22=
EXTT23=
EXTT24=
PLAYORDER=
